<svg width="322" height="267" viewBox="0 0 322 267" fill="none" xmlns="http://www.w3.org/2000/svg">
<path d="M89.0963 0L103.256 14.1651L84.2378 33.1829C77.7731 39.6532 69.2135 42.9277 60.738 42.9165C52.2682 42.9277 43.7028 39.6532 37.2381 33.1829L18.2202 14.1651L32.3798 0L51.3976 19.0178C54.0037 21.6127 57.3231 22.8764 60.7324 22.8877C64.1417 22.8764 67.461 21.6183 70.0671 19.0178L89.085 0H89.0963ZM121.482 89.0906L102.464 70.0728C99.8689 67.4666 98.6107 64.1472 98.5995 60.738C98.6107 57.3231 99.8689 54.0037 102.464 51.4032L121.482 32.3853L107.322 18.2203L88.3042 37.2381C81.8339 43.7028 78.5595 52.2681 78.5708 60.738C78.5595 69.2078 81.8339 77.7731 88.3042 84.2322L107.322 103.25L121.487 89.0906H121.482ZM32.3854 121.476L51.4032 102.458C54.0093 99.8576 57.3231 98.5995 60.738 98.5883C64.1473 98.5995 67.4667 99.8576 70.0728 102.458L89.0906 121.476L103.256 107.311L84.2378 88.293C77.7731 81.8227 69.2135 78.5482 60.738 78.5594C52.2682 78.5482 43.7028 81.8227 37.2381 88.293L18.2202 107.311L32.3854 121.476ZM1.52895e-05 32.3853L19.0179 51.4032C21.6128 54.0093 22.8708 57.3287 22.8821 60.738C22.8708 64.1472 21.6128 67.4666 19.0179 70.0728L1.52895e-05 89.0906L14.1651 103.256L33.183 84.2378C39.6533 77.7731 42.9278 69.2134 42.9166 60.7436C42.9278 52.2737 39.6533 43.7084 33.183 37.2437L14.1651 18.2259L1.52895e-05 32.391V32.3853Z" fill="#00B4FD"/>
<path d="M289.407 0L303.566 14.1651L284.548 33.1829C278.084 39.6532 269.524 42.9277 261.049 42.9165C252.579 42.9277 244.013 39.6532 237.549 33.1829L218.531 14.1651L232.69 0L251.708 19.0178C254.314 21.6127 257.634 22.8764 261.043 22.8877C264.452 22.8764 267.772 21.6183 270.378 19.0178L289.396 0H289.407ZM321.792 89.0906L302.774 70.0728C300.18 67.4666 298.921 64.1472 298.91 60.738C298.921 57.3231 300.18 54.0037 302.774 51.4032L321.792 32.3853L307.633 18.2203L288.615 37.2381C282.145 43.7028 278.87 52.2681 278.881 60.738C278.87 69.2078 282.145 77.7731 288.615 84.2322L307.633 103.25L321.798 89.0906H321.792ZM232.696 121.476L251.714 102.458C254.32 99.8576 257.634 98.5995 261.049 98.5883C264.458 98.5995 267.777 99.8576 270.383 102.458L289.401 121.476L303.566 107.311L284.548 88.293C278.084 81.8227 269.524 78.5482 261.049 78.5594C252.579 78.5482 244.013 81.8227 237.549 88.293L218.531 107.311L232.696 121.476ZM200.311 32.3853L219.329 51.4032C221.923 54.0093 223.181 57.3287 223.193 60.738C223.181 64.1472 221.923 67.4666 219.329 70.0728L200.311 89.0906L214.476 103.256L233.494 84.2378C239.964 77.7731 243.238 69.2134 243.227 60.7436C243.238 52.2737 239.964 43.7084 233.494 37.2437L214.476 18.2259L200.311 32.391V32.3853Z" fill="#00B4FD"/>
<path d="M89.0962 145.524L103.256 159.689L84.2378 178.707C77.7731 185.177 69.2135 188.452 60.738 188.441C52.2682 188.452 43.7028 185.177 37.2381 178.707L18.2202 159.689L32.3798 145.524L51.3975 164.542C54.0036 167.137 57.3231 168.401 60.7324 168.412C64.1417 168.401 67.461 167.142 70.0671 164.542L89.085 145.524H89.0962ZM121.482 234.615L102.464 215.597C99.8689 212.991 98.6107 209.671 98.5995 206.262C98.6107 202.847 99.8689 199.528 102.464 196.927L121.482 177.909L107.322 163.744L88.3042 182.762C81.8339 189.227 78.5595 197.792 78.5707 206.262C78.5595 214.732 81.8339 223.297 88.3042 229.756L107.322 248.774L121.487 234.615H121.482ZM32.3854 267L51.4032 247.982C54.0093 245.382 57.3231 244.124 60.738 244.112C64.1473 244.124 67.4666 245.382 70.0728 247.982L89.0906 267L103.256 252.835L84.2378 233.817C77.7731 227.347 69.2135 224.072 60.738 224.084C52.2682 224.072 43.7028 227.347 37.2381 233.817L18.2202 252.835L32.3854 267ZM0 177.909L19.0179 196.927C21.6127 199.533 22.8708 202.853 22.882 206.262C22.8708 209.671 21.6127 212.991 19.0179 215.597L0 234.615L14.1651 248.78L33.1829 229.762C39.6533 223.297 42.9278 214.738 42.9166 206.268C42.9278 197.798 39.6533 189.233 33.1829 182.768L14.1651 163.75L0 177.915V177.909Z" fill="#00B4FD"/>
<path d="M289.407 145.524L303.566 159.689L284.548 178.707C278.084 185.177 269.524 188.452 261.049 188.441C252.579 188.452 244.013 185.177 237.549 178.707L218.531 159.689L232.69 145.524L251.708 164.542C254.314 167.137 257.634 168.401 261.043 168.412C264.452 168.401 267.772 167.142 270.378 164.542L289.396 145.524H289.407ZM321.792 234.615L302.774 215.597C300.18 212.991 298.921 209.671 298.91 206.262C298.921 202.847 300.18 199.528 302.774 196.927L321.792 177.909L307.633 163.744L288.615 182.762C282.145 189.227 278.87 197.792 278.881 206.262C278.87 214.732 282.145 223.297 288.615 229.756L307.633 248.774L321.798 234.615H321.792ZM232.696 267L251.714 247.982C254.32 245.382 257.634 244.124 261.049 244.112C264.458 244.124 267.777 245.382 270.383 247.982L289.401 267L303.566 252.835L284.548 233.817C278.084 227.347 269.524 224.072 261.049 224.084C252.579 224.072 244.013 227.347 237.549 233.817L218.531 252.835L232.696 267ZM200.311 177.909L219.329 196.927C221.923 199.533 223.181 202.853 223.193 206.262C223.181 209.671 221.923 212.991 219.329 215.597L200.311 234.615L214.476 248.78L233.494 229.762C239.964 223.297 243.238 214.738 243.227 206.268C243.238 197.798 239.964 189.233 233.494 182.768L214.476 163.75L200.311 177.915V177.909Z" fill="#00B4FD"/>
</svg>
