<svg width="368" height="302" viewBox="0 0 368 302" fill="none" xmlns="http://www.w3.org/2000/svg">
<path d="M101.888 0.000244476L118.081 16.1991L96.3323 37.9474C88.9394 45.3467 79.1508 49.0913 69.4585 49.0785C59.7726 49.0913 49.9775 45.3467 42.5846 37.9474L20.8362 16.1991L37.0287 0.000244476L58.777 21.7486C61.7572 24.716 65.5533 26.1612 69.4521 26.174C73.3508 26.1612 77.1468 24.7224 80.127 21.7486L101.875 0.000244476H101.888ZM138.923 101.882L117.175 80.1337C114.208 77.1534 112.769 73.3575 112.756 69.4587C112.769 65.5535 114.208 61.7575 117.175 58.7836L138.923 37.0353L122.731 20.8365L100.983 42.5848C93.5832 49.9777 89.8387 59.7728 89.8516 69.4587C89.8387 79.1446 93.5832 88.9397 100.983 96.3261L122.731 118.074L138.93 101.882H138.923ZM37.0352 138.917L58.7834 117.169C61.7637 114.195 65.5533 112.756 69.4585 112.743C73.3573 112.756 77.1532 114.195 80.1335 117.169L101.882 138.917L118.081 122.718L96.3323 100.97C88.9394 93.5707 79.1508 89.826 69.4585 89.8389C59.7726 89.826 49.9775 93.5707 42.5846 100.97L20.8362 122.718L37.0352 138.917ZM0 37.0353L21.7484 58.7836C24.7158 61.7639 26.1545 65.5599 26.1673 69.4587C26.1545 73.3575 24.7158 77.1534 21.7484 80.1337L0 101.882L16.1988 118.081L37.9472 96.3326C45.3465 88.9397 49.0912 79.151 49.0783 69.4651C49.0912 59.7792 45.3465 49.9841 37.9472 42.5912L16.1988 20.8429L0 37.0417V37.0353Z" fill="#00B4FD"/>
<path d="M330.959 0L347.151 16.1988L325.403 37.9472C318.01 45.3465 308.221 49.0911 298.529 49.0782C288.843 49.0911 279.048 45.3465 271.655 37.9472L249.906 16.1988L266.099 0L287.847 21.7483C290.828 24.7158 294.624 26.1609 298.522 26.1738C302.421 26.1609 306.217 24.7222 309.197 21.7483L330.946 0H330.959ZM367.994 101.882L346.245 80.1335C343.278 77.1532 341.839 73.3572 341.826 69.4584C341.839 65.5532 343.278 61.7573 346.245 58.7834L367.994 37.0351L351.801 20.8362L330.053 42.5846C322.653 49.9774 318.909 59.7725 318.922 69.4584C318.909 79.1443 322.653 88.9394 330.053 96.3259L351.801 118.074L368 101.882H367.994ZM266.105 138.917L287.854 117.169C290.834 114.195 294.624 112.756 298.529 112.743C302.428 112.756 306.223 114.195 309.204 117.169L330.952 138.917L347.151 122.718L325.403 100.97C318.01 93.5704 308.221 89.8258 298.529 89.8386C288.843 89.8258 279.048 93.5704 271.655 100.97L249.906 122.718L266.105 138.917ZM229.07 37.0351L250.819 58.7834C253.786 61.7637 255.225 65.5597 255.238 69.4584C255.225 73.3572 253.786 77.1532 250.819 80.1335L229.07 101.882L245.269 118.081L267.017 96.3323C274.417 88.9394 278.161 79.1508 278.149 69.4649C278.161 59.779 274.417 49.9839 267.017 42.591L245.269 20.8427L229.07 37.0415V37.0351Z" fill="#00B4FD"/>
<path d="M101.888 162.95L118.081 179.149L96.3323 200.897C88.9394 208.296 79.1508 212.041 69.4585 212.028C59.7726 212.041 49.9775 208.296 42.5846 200.897L20.8362 179.149L37.0287 162.95L58.777 184.698C61.7572 187.666 65.5533 189.111 69.4521 189.124C73.3508 189.111 77.1468 187.672 80.127 184.698L101.875 162.95H101.888ZM138.923 264.832L117.175 243.083C114.208 240.103 112.769 236.307 112.756 232.408C112.769 228.503 114.208 224.707 117.175 221.733L138.923 199.985L122.731 183.786L100.983 205.535C93.5832 212.927 89.8387 222.723 89.8516 232.408C89.8387 242.094 93.5832 251.889 100.983 259.276L122.731 281.024L138.93 264.832H138.923ZM37.0352 301.867L58.7834 280.119C61.7637 277.145 65.5533 275.706 69.4585 275.693C73.3573 275.706 77.1532 277.145 80.1335 280.119L101.882 301.867L118.081 285.668L96.3323 263.92C88.9394 256.52 79.1508 252.776 69.4585 252.789C59.7726 252.776 49.9775 256.52 42.5846 263.92L20.8362 285.668L37.0352 301.867ZM0 199.985L21.7484 221.733C24.7158 224.714 26.1545 228.51 26.1673 232.408C26.1545 236.307 24.7158 240.103 21.7484 243.083L0 264.832L16.1988 281.031L37.9472 259.282C45.3465 251.889 49.0912 242.101 49.0783 232.415C49.0912 222.729 45.3465 212.934 37.9472 205.541L16.1988 183.793L0 199.992V199.985Z" fill="#00B4FD"/>
<path d="M330.959 162.95L347.151 179.149L325.403 200.897C318.01 208.296 308.221 212.041 298.529 212.028C288.843 212.041 279.048 208.296 271.655 200.897L249.907 179.149L266.099 162.95L287.847 184.698C290.828 187.666 294.624 189.111 298.522 189.124C302.421 189.111 306.217 187.672 309.197 184.698L330.946 162.95H330.959ZM367.994 264.832L346.245 243.083C343.278 240.103 341.839 236.307 341.826 232.408C341.839 228.503 343.278 224.707 346.245 221.733L367.994 199.985L351.801 183.786L330.053 205.535C322.654 212.927 318.909 222.723 318.922 232.408C318.909 242.094 322.654 251.889 330.053 259.276L351.801 281.024L368 264.832H367.994ZM266.105 301.867L287.854 280.119C290.834 277.145 294.624 275.706 298.529 275.693C302.428 275.706 306.223 277.145 309.204 280.119L330.952 301.867L347.151 285.668L325.403 263.92C318.01 256.52 308.221 252.776 298.529 252.789C288.843 252.776 279.048 256.52 271.655 263.92L249.907 285.668L266.105 301.867ZM229.07 199.985L250.819 221.733C253.786 224.714 255.225 228.51 255.238 232.408C255.225 236.307 253.786 240.103 250.819 243.083L229.07 264.832L245.269 281.031L267.017 259.282C274.417 251.889 278.161 242.101 278.149 232.415C278.161 222.729 274.417 212.934 267.017 205.541L245.269 183.793L229.07 199.992V199.985Z" fill="#00B4FD"/>
</svg>
