<svg width="258" height="219" viewBox="0 0 258 219" fill="none" xmlns="http://www.w3.org/2000/svg">
<path d="M71.4325 0L82.7848 11.3568L67.5373 26.6043C62.3542 31.7918 55.4916 34.4171 48.6965 34.4081C41.9058 34.4171 35.0385 31.7918 29.8555 26.6043L14.608 11.3568L25.9604 0L41.2078 15.2475C43.2972 17.3279 45.9586 18.3411 48.6919 18.3501C51.4253 18.3411 54.0866 17.3324 56.176 15.2475L71.4235 0H71.4325ZM97.3973 71.428L82.1499 56.1805C80.0695 54.0911 79.0607 51.4298 79.0517 48.6964C79.0607 45.9585 80.0695 43.2972 82.1499 41.2123L97.3973 25.9648L86.045 14.608L70.7975 29.8555C65.61 35.0385 62.9848 41.9057 62.9938 48.6964C62.9848 55.4871 65.61 62.3543 70.7975 67.5328L86.045 82.7803L97.4018 71.428H97.3973ZM25.9649 97.3928L41.2123 82.1453C43.3017 80.0604 45.9586 79.0517 48.6965 79.0427C51.4298 79.0517 54.0911 80.0604 56.1805 82.1453L71.428 97.3928L82.7848 86.036L67.5373 70.7886C62.3542 65.601 55.4916 62.9757 48.6965 62.9847C41.9058 62.9757 35.0385 65.601 29.8555 70.7886L14.608 86.036L25.9649 97.3928ZM0 25.9648L15.2475 41.2123C17.3279 43.3017 18.3366 45.963 18.3456 48.6964C18.3366 51.4298 17.3279 54.0911 15.2475 56.1805L0 71.428L11.3568 82.7848L26.6043 67.5373C31.7918 62.3543 34.4172 55.4916 34.4082 48.7009C34.4172 41.9103 31.7918 35.043 26.6043 29.86L11.3568 14.6125L0 25.9693V25.9648Z" fill="#00B4FD"/>
<path d="M232.031 0L243.383 11.3568L228.135 26.6043C222.952 31.7918 216.09 34.4171 209.295 34.4081C202.504 34.4171 195.637 31.7918 190.454 26.6043L175.206 11.3568L186.559 0L201.806 15.2475C203.895 17.3279 206.557 18.3411 209.29 18.3501C212.024 18.3411 214.685 17.3324 216.774 15.2475L232.022 0H232.031ZM257.995 71.428L242.748 56.1805C240.668 54.0911 239.659 51.4298 239.65 48.6964C239.659 45.9585 240.668 43.2972 242.748 41.2123L257.995 25.9648L246.643 14.608L231.396 29.8555C226.208 35.0385 223.583 41.9057 223.592 48.6964C223.583 55.4871 226.208 62.3543 231.396 67.5328L246.643 82.7803L258 71.428H257.995ZM186.563 97.3928L201.81 82.1453C203.9 80.0604 206.557 79.0517 209.295 79.0427C212.028 79.0517 214.689 80.0604 216.779 82.1453L232.026 97.3928L243.383 86.036L228.135 70.7886C222.952 65.601 216.09 62.9757 209.295 62.9847C202.504 62.9757 195.637 65.601 190.454 70.7886L175.206 86.036L186.563 97.3928ZM160.598 25.9648L175.846 41.2123C177.926 43.3017 178.935 45.963 178.944 48.6964C178.935 51.4298 177.926 54.0911 175.846 56.1805L160.598 71.428L171.955 82.7848L187.202 67.5373C192.39 62.3543 195.015 55.4916 195.006 48.7009C195.015 41.9103 192.39 35.043 187.202 29.86L171.955 14.6125L160.598 25.9693V25.9648Z" fill="#00B4FD"/>
<path d="M71.4325 121.468L82.7848 132.824L67.5373 148.072C62.3542 153.259 55.4916 155.885 48.6965 155.876C41.9058 155.885 35.0385 153.259 29.8555 148.072L14.608 132.824L25.9604 121.468L41.2078 136.715C43.2972 138.795 45.9586 139.809 48.6919 139.818C51.4253 139.809 54.0866 138.8 56.176 136.715L71.4235 121.468H71.4325ZM97.3973 192.896L82.1499 177.648C80.0695 175.559 79.0607 172.897 79.0517 170.164C79.0607 167.426 80.0695 164.765 82.1499 162.68L97.3973 147.432L86.045 136.076L70.7975 151.323C65.61 156.506 62.9848 163.373 62.9938 170.164C62.9848 176.955 65.61 183.822 70.7975 189L86.045 204.248L97.4018 192.896H97.3973ZM25.9649 218.86L41.2123 203.613C43.3017 201.528 45.9586 200.519 48.6965 200.51C51.4298 200.519 54.0911 201.528 56.1805 203.613L71.428 218.86L82.7848 207.504L67.5373 192.256C62.3542 187.069 55.4916 184.443 48.6965 184.452C41.9058 184.443 35.0385 187.069 29.8555 192.256L14.608 207.504L25.9649 218.86ZM0 147.432L15.2475 162.68C17.3279 164.769 18.3366 167.431 18.3456 170.164C18.3366 172.897 17.3279 175.559 15.2475 177.648L0 192.896L11.3568 204.252L26.6043 189.005C31.7918 183.822 34.4172 176.959 34.4082 170.168C34.4172 163.378 31.7918 156.511 26.6043 151.328L11.3568 136.08L0 147.437V147.432Z" fill="#00B4FD"/>
<path d="M232.031 121.468L243.383 132.824L228.135 148.072C222.952 153.259 216.09 155.885 209.295 155.876C202.504 155.885 195.637 153.259 190.454 148.072L175.206 132.824L186.559 121.468L201.806 136.715C203.895 138.795 206.557 139.809 209.29 139.818C212.024 139.809 214.685 138.8 216.774 136.715L232.022 121.468H232.031ZM257.995 192.896L242.748 177.648C240.668 175.559 239.659 172.897 239.65 170.164C239.659 167.426 240.668 164.765 242.748 162.68L257.995 147.432L246.643 136.076L231.396 151.323C226.208 156.506 223.583 163.373 223.592 170.164C223.583 176.955 226.208 183.822 231.396 189L246.643 204.248L258 192.896H257.995ZM186.563 218.86L201.81 203.613C203.9 201.528 206.557 200.519 209.295 200.51C212.028 200.519 214.689 201.528 216.779 203.613L232.026 218.86L243.383 207.504L228.135 192.256C222.952 187.069 216.09 184.443 209.295 184.452C202.504 184.443 195.637 187.069 190.454 192.256L175.206 207.504L186.563 218.86ZM160.598 147.432L175.846 162.68C177.926 164.769 178.935 167.431 178.944 170.164C178.935 172.897 177.926 175.559 175.846 177.648L160.598 192.896L171.955 204.252L187.202 189.005C192.39 183.822 195.015 176.959 195.006 170.168C195.015 163.378 192.39 156.511 187.202 151.328L171.955 136.08L160.598 147.437V147.432Z" fill="#00B4FD"/>
</svg>
