<svg width="269" height="49" viewBox="0 0 269 49" fill="none" xmlns="http://www.w3.org/2000/svg">
<path d="M19.3779 35.6545H19.3789C21.955 35.6511 24.5573 36.6457 26.5225 38.6125V38.6135L32.2363 44.3274L28.4238 48.1389L22.71 42.425L22.5322 42.2571C21.6317 41.4436 20.5172 41.0479 19.3799 41.0442H19.377C18.2377 41.0479 17.124 41.4435 16.2236 42.2571L16.0469 42.425L10.332 48.1389L6.51953 44.3274L12.2344 38.6135V38.6125C14.1995 36.6459 16.8037 35.6511 19.3779 35.6545ZM10.2334 22.3264C12.2001 24.2914 13.1957 26.8948 13.1924 29.469V29.4709C13.1955 31.8843 12.3209 34.3221 10.5908 36.2366L10.2334 36.6125L4.51953 42.3264L0.707031 38.5139L6.42188 32.7991C7.34692 31.87 7.79678 30.683 7.80078 29.47V29.467C7.79678 28.254 7.34701 27.0661 6.42188 26.137H6.4209L0.707031 20.4231L4.51855 16.6116L10.2334 22.3264ZM38.0508 20.4211L32.3369 26.137C31.4113 27.0646 30.962 28.2524 30.958 29.467V29.47C30.962 30.6829 31.411 31.87 32.3359 32.7991L38.0508 38.5139L34.2412 42.3245L28.5264 36.6106L28.1689 36.2346C26.4392 34.3215 25.5642 31.8824 25.5674 29.469V29.468C25.564 26.8937 26.5596 24.2896 28.5264 22.3245L34.2402 16.6106L38.0508 20.4211ZM32.2363 14.6086L26.5225 20.3235C24.5573 22.2903 21.955 23.2859 19.3789 23.2825H19.3779C16.9645 23.2857 14.525 22.4108 12.6104 20.6809L12.2344 20.3235L6.51953 14.6086L10.3311 10.7971L16.0449 16.511V16.512C16.9737 17.4367 18.1614 17.8878 19.375 17.8918H19.3779C20.5911 17.8878 21.7788 17.4391 22.708 16.512V16.511L28.4229 10.7952L32.2363 14.6086Z" stroke="url(#paint0_linear_24_4063)"/>
<path opacity="0.6" d="M235.542 45V35.396H236.998L239.938 41.206L240.456 42.326H240.512V35.396H241.884V45H240.414L237.376 39.064L236.956 38.098L236.9 38.112V45H235.542ZM243.937 45V35.396H247.913C248.435 35.396 248.883 35.494 249.257 35.69C249.63 35.886 249.919 36.1613 250.125 36.516C250.33 36.8613 250.433 37.2533 250.433 37.692C250.433 38.168 250.349 38.5647 250.181 38.882C250.013 39.19 249.798 39.4327 249.537 39.61C249.275 39.778 249.009 39.8993 248.739 39.974V40.058C248.916 40.086 249.112 40.1467 249.327 40.24C249.541 40.324 249.751 40.4547 249.957 40.632C250.162 40.8 250.33 41.0333 250.461 41.332C250.591 41.6307 250.657 41.9993 250.657 42.438C250.657 42.914 250.54 43.348 250.307 43.74C250.083 44.132 249.77 44.44 249.369 44.664C248.967 44.888 248.51 45 247.997 45H243.937ZM245.323 43.81H247.661C247.959 43.81 248.225 43.74 248.459 43.6C248.692 43.46 248.874 43.2687 249.005 43.026C249.145 42.7833 249.215 42.522 249.215 42.242C249.215 41.9247 249.145 41.6493 249.005 41.416C248.865 41.1733 248.673 40.9867 248.431 40.856C248.197 40.7253 247.941 40.66 247.661 40.66H245.323V43.81ZM245.323 39.526H247.507C247.787 39.526 248.039 39.4607 248.263 39.33C248.496 39.1993 248.673 39.0173 248.795 38.784C248.925 38.5413 248.991 38.2753 248.991 37.986C248.991 37.5287 248.879 37.174 248.655 36.922C248.431 36.6607 248.099 36.53 247.661 36.53H245.323V39.526ZM252.513 45V35.396H258.575L258.393 36.6H253.969V39.596H257.833V40.758H253.969V45H252.513ZM263.806 45.14C263.292 45.14 262.816 45.0653 262.378 44.916C261.948 44.7667 261.57 44.5287 261.244 44.202C260.917 43.866 260.66 43.4227 260.474 42.872C260.296 42.3213 260.208 41.6447 260.208 40.842V39.554C260.208 38.7513 260.301 38.0747 260.488 37.524C260.674 36.9733 260.931 36.5347 261.258 36.208C261.584 35.872 261.962 35.6293 262.392 35.48C262.83 35.3307 263.297 35.256 263.792 35.256H263.988C264.716 35.256 265.336 35.396 265.85 35.676C266.372 35.956 266.769 36.3807 267.04 36.95C267.31 37.51 267.446 38.2147 267.446 39.064H266.032C266.032 38.448 265.962 37.9487 265.822 37.566C265.691 37.174 265.467 36.8893 265.15 36.712C264.832 36.5253 264.408 36.432 263.876 36.432C263.568 36.432 263.283 36.4787 263.022 36.572C262.77 36.656 262.546 36.8053 262.35 37.02C262.154 37.2253 262 37.51 261.888 37.874C261.776 38.238 261.72 38.6953 261.72 39.246V41.136C261.72 41.6867 261.776 42.1487 261.888 42.522C262 42.886 262.154 43.1753 262.35 43.39C262.546 43.5953 262.77 43.7447 263.022 43.838C263.283 43.922 263.568 43.964 263.876 43.964C264.678 43.964 265.243 43.7587 265.57 43.348C265.906 42.928 266.074 42.2607 266.074 41.346H267.446C267.446 42.1673 267.31 42.858 267.04 43.418C266.769 43.978 266.377 44.4073 265.864 44.706C265.35 44.9953 264.73 45.14 264.002 45.14H263.806Z" fill="#E9F4F9"/>
<defs>
<linearGradient id="paint0_linear_24_4063" x1="9.27389" y1="-30.7793" x2="52.0744" y2="-18.0776" gradientUnits="userSpaceOnUse">
<stop stop-color="white"/>
<stop offset="1" stop-color="#8B8B8B"/>
</linearGradient>
</defs>
</svg>
